<svg xmlns="http://www.w3.org/2000/svg" width="148.563" height="29.781" viewBox="0 0 148.563 29.781">
  <defs>
    <style>
      .cls-1 {
        fill: #fff;
        fill-rule: evenodd;
      }
    </style>
  </defs>
  <path id="sonicgram_copy" data-name="sonicgram copy" class="cls-1" d="M51.615,957.806c4.757,0,7.687-2.031,7.687-5.367,0-3.539-3.423-4.206-6.149-4.5-2-.232-3.771-0.29-3.771-1.421,0-.812.87-1.363,2.089-1.363,1.392,0,2.378.7,2.407,1.74h4.815c0-3.075-3.075-5.018-7.223-5.018-4.264,0-7.078,1.972-7.078,5.134,0,4.148,3.974,4.38,6.672,4.641,1.566,0.145,2.843.319,2.843,1.392,0,0.9-.9,1.451-2.175,1.451-1.711,0-2.814-.841-2.814-2.118H44.306C44.306,955.746,47.119,957.806,51.615,957.806ZM69.1,957.69c5.134,0,8.441-2.959,8.441-7.861,0-4.873-3.307-7.861-8.441-7.861-5.192,0-8.47,2.959-8.47,7.861C60.632,954.7,63.939,957.69,69.1,957.69Zm0-4.555a3.32,3.32,0,1,1,3.017-3.306A3.023,3.023,0,0,1,69.1,953.135Zm10.351,4.177h5.424v-8.237a2.335,2.335,0,0,1,2.263-2.524,2.149,2.149,0,0,1,2.088,2.437v8.324h5.424v-9.34c0-3.452-2.175-5.975-5.279-5.975-1.769,0-3.017.812-4.206,2.552h-0.29v-2.2H79.453v14.967Zm20.358-16.591a2.975,2.975,0,1,0-3.075-2.988A2.926,2.926,0,0,0,99.812,940.721Zm-2.7,16.591h5.424V942.345H97.114v14.967Zm15.777,0.378c4.265,0,7.4-2.234,7.89-5.976l-5.018-.609a2.863,2.863,0,0,1-2.813,2.234c-1.712,0-2.959-1.451-2.959-3.51s1.276-3.51,2.988-3.51a2.874,2.874,0,0,1,2.784,2.262l5.018-.638c-0.464-3.742-3.6-5.975-7.89-5.975-4.989,0-8.325,3.046-8.325,7.861C104.566,954.586,107.989,957.69,112.891,957.69Zm17.864,6.874c4.729,0,7.8-2.929,7.8-7.513V942.664H136.18v2.088h-0.29a6.493,6.493,0,0,0-5.367-2.639,7.493,7.493,0,0,0-7.6,7.861,7.389,7.389,0,0,0,7.6,7.716,6.533,6.533,0,0,0,5.338-2.611h0.29v1.972a4.966,4.966,0,0,1-5.28,5.338,5.2,5.2,0,0,1-5.25-3.6l-2.407.9C124.2,962.737,126.985,964.564,130.755,964.564Zm0.029-8.992a5.66,5.66,0,0,1,0-11.313,5.424,5.424,0,0,1,5.454,5.715A5.359,5.359,0,0,1,130.784,955.572Zm12.207,1.74H145.4v-7.889c0-2.9,1.537-4.874,3.742-4.874a6,6,0,0,1,2.175.436v-2.234a4.126,4.126,0,0,0-1.8-.377,4.475,4.475,0,0,0-3.916,2.262h-0.261v-1.972h-2.35v14.648Zm15.2,0.465a5.62,5.62,0,0,0,5.105-2.611h0.261v2.146h2.407V947.6c0-3.336-2.407-5.482-6.207-5.482-3.684,0-6.091,1.972-6.091,5.076H156.1c-0.029-1.827,1.421-2.9,3.626-2.9,2.408,0,3.829,1.277,3.829,3.249v0.58l-4.061.493c-4.351.494-6.556,2.408-6.556,4.99C152.938,956.123,155.027,957.777,158.189,957.777Zm0.348-2c-1.973,0-3.191-.841-3.191-2.233,0-1.364,1.16-2.524,4.148-2.9l4.061-.464v1.3C163.555,953.948,161.524,955.775,158.537,955.775Zm11.6,1.537h2.408v-8.76c0-2.581,1.566-4.293,3.945-4.293,2.263,0,3.771,1.712,3.771,4.293v8.76h2.407v-8.76a4,4,0,0,1,4-4.293c2.2,0,3.8,1.8,3.8,4.293v8.76h2.408v-8.731c0-3.8-2.466-6.468-5.918-6.468a5.516,5.516,0,0,0-4.9,2.814H181.8a5.322,5.322,0,0,0-4.786-2.843,4.747,4.747,0,0,0-4.264,2.523h-0.29v-1.943h-2.321v14.648Z" transform="translate(-44.313 -934.781)"/>
</svg>
